# xmcd
#
# Track frame offsets:
#  150
#  26712
#  51175
#  75975
#  109150
#  131725
#  159300
#  184175
#  216787
#  243125
#
# Disc length: 3524 seconds
#
# Revision: 0
# Processed by: cddbd v1.4PL0 Copyright (c) Steve Scherf et al.
# Submitted via: AltoMP3_Maker 3.0
#
DISCID=7d0dc20a
DTITLE=Tinh Khuc Tien Chien 3 - Tinh Khuc Tien Chien 3
DYEAR=1900
DGENRE=
TTITLE0=Bong Chieu Xua
TTITLE1=Cung Mot Kiep Hoa
TTITLE2=Son Nu Ca
TTITLE3=Buon Tan Thu
TTITLE4=Giong An Giang
TTITLE5=Ai Len Xu Hoa Dao
TTITLE6=Nang Xuan Cua Toi
TTITLE7=Dem Tan Ben Ngu
TTITLE8=Tieng Xua
TTITLE9=Toc May
EXTD=
EXTT0=
EXTT1=
EXTT2=
EXTT3=
EXTT4=
EXTT5=
EXTT6=
EXTT7=
EXTT8=
EXTT9=
PLAYORDER=
